<svg xmlns="http://www.w3.org/2000/svg" viewBox="0 0 96 128">
  <!-- мачта -->
  <polygon points="46,40 50,40 50,16 46,16" fill="#cbd3e6"/>
  <circle cx="48" cy="13" r="5" fill="#ffd93d"/>
  <!-- стены -->
  <polygon points="8,102 48,122 48,78 8,58" fill="#8e5fd0"/>
  <polygon points="48,122 88,102 88,58 48,78" fill="#7448ad"/>
  <!-- крыша -->
  <polygon points="48,38 88,58 48,78 8,58" fill="#a678e8"/>
  <!-- молния -->
  <polygon points="66,68 58,86 64,86 56,100 72,82 65,82 72,68" fill="#ffd93d"/>
  <!-- окна -->
  <polygon points="16,74 26,79 26,89 16,84" fill="#e8dcff"/>
  <polygon points="30,81 40,86 40,96 30,91" fill="#e8dcff"/>
</svg>
